<svg width="8" height="14" viewBox="0 0 8 14" fill="none" xmlns="http://www.w3.org/2000/svg">
<path d="M6.1733 12.9205L0.582513 7.60123C0.516153 7.5379 0.469259 7.4693 0.441831 7.39542C0.41396 7.32155 0.400024 7.24239 0.400024 7.15796C0.400024 7.07353 0.41396 6.99437 0.441831 6.92049C0.469259 6.84661 0.516153 6.77801 0.582513 6.71469L6.1733 1.37959C6.32813 1.23184 6.52168 1.15796 6.75394 1.15796C6.9862 1.15796 7.18528 1.23711 7.35118 1.39543C7.51707 1.55374 7.60002 1.73843 7.60002 1.94952C7.60002 2.1606 7.51707 2.34529 7.35118 2.50361L2.47376 7.15796L7.35118 11.8123C7.50601 11.9601 7.58343 12.142 7.58343 12.3582C7.58343 12.5747 7.50048 12.7622 7.33459 12.9205C7.16869 13.0788 6.97514 13.158 6.75394 13.158C6.53274 13.158 6.33919 13.0788 6.1733 12.9205Z" fill="#363636" stroke="#363636" stroke-width="0.36"/>
</svg>
