<svg width="20" height="20" viewBox="0 0 20 20" fill="none" xmlns="http://www.w3.org/2000/svg">
<circle opacity="0.3" cx="10" cy="10" r="10" fill="white"/>
<path d="M8.99078 6.1781L12.8733 10.1675C12.9194 10.215 12.9519 10.2665 12.971 10.3219C12.9903 10.3773 13 10.4367 13 10.5C13 10.5633 12.9903 10.6227 12.971 10.6781C12.9519 10.7335 12.9194 10.785 12.8733 10.8325L8.99078 14.8338C8.88326 14.9446 8.74885 15 8.58756 15C8.42627 15 8.28802 14.9406 8.17281 14.8219C8.0576 14.7032 8 14.5646 8 14.4063C8 14.248 8.0576 14.1095 8.17281 13.9908L11.5599 10.5L8.17281 7.00923C8.06528 6.89842 8.01152 6.76195 8.01152 6.59984C8.01152 6.43741 8.06912 6.29683 8.18433 6.1781C8.29954 6.05937 8.43395 6 8.58756 6C8.74117 6 8.87558 6.05937 8.99078 6.1781Z" fill="white" stroke="white" stroke-width="1.5"/>
</svg>
