<svg width="8" height="13" viewBox="0 0 8 13" fill="none" xmlns="http://www.w3.org/2000/svg">
<path d="M1.26647 1.76309C1.182 1.84595 1.11498 1.94436 1.06926 2.0527C1.02354 2.16105 1 2.27719 1 2.39448C1 2.51178 1.02354 2.62792 1.06926 2.73627C1.11498 2.84461 1.182 2.94302 1.26647 3.02588L4.80184 6.50078L1.26647 9.97568C1.0961 10.1431 1.00039 10.3703 1.00039 10.6071C1.00039 10.8439 1.0961 11.071 1.26647 11.2385C1.43684 11.4059 1.66791 11.5 1.90885 11.5C2.14979 11.5 2.38086 11.4059 2.55123 11.2385L6.73353 7.1277C6.818 7.04484 6.88502 6.94643 6.93074 6.83808C6.97646 6.72974 7 6.6136 7 6.4963C7 6.37901 6.97646 6.26287 6.93074 6.15452C6.88502 6.04618 6.818 5.94776 6.73353 5.86491L2.55123 1.75414C2.20498 1.41381 1.62183 1.41381 1.26647 1.76309Z" fill="#0C81DC" stroke="#0C81DC" stroke-width="0.3"/>
</svg>
