<svg xmlns="http://www.w3.org/2000/svg" width="18.577" height="18.711" viewBox="0 0 18.577 18.711">
  <g id="Group_434" data-name="Group 434" transform="translate(-18.987 -247.963)">
    <path id="Path_1378" data-name="Path 1378" d="M33,253.643c0-1.341,0-2.577,0-3.813,0-.53,0-.534-.518-.534H20.819c-.486,0-.5.017-.5.512q0,7.513,0,15.025c0,.5.006.508.5.509H32.479c.518,0,.519,0,.519-.529,0-1.539.005-3.078,0-4.617a1.152,1.152,0,0,1,.258-.822c.358-.422.673-.88,1.076-1.415v1.28q0,2.915,0,5.831a1.582,1.582,0,0,1-1.605,1.6q-6.065,0-12.131,0a1.58,1.58,0,0,1-1.6-1.6q0-7.748,0-15.5a1.575,1.575,0,0,1,1.563-1.6q6.1-.013,12.209,0a1.581,1.581,0,0,1,1.569,1.6,4.847,4.847,0,0,0,.005.7,3.258,3.258,0,0,1-.978,2.924C33.249,253.306,33.163,253.436,33,253.643Z" transform="translate(0 0)" fill="#aaa"/>
    <path id="Path_1379" data-name="Path 1379" d="M147.487,302.268l1.975,1.474-1.41,1.886q-2.163,2.9-4.331,5.789a1.561,1.561,0,0,1-.522.442c-.494.25-1.005.466-1.517.679a.431.431,0,0,1-.356,0,.436.436,0,0,1-.084-.341c.06-.526.125-1.052.219-1.573a1.464,1.464,0,0,1,.241-.6C143.606,307.459,145.521,304.9,147.487,302.268Z" transform="translate(-112.681 -50.054)" fill="#aaa"/>
    <path id="Path_1380" data-name="Path 1380" d="M65.329,339.232h-3.6c-.473,0-.734-.209-.747-.6s.275-.656.747-.656q3.636,0,7.271,0c.469,0,.76.26.747.657s-.275.595-.747.6Z" transform="translate(-38.711 -82.969)" fill="#aaa"/>
    <path id="Path_1381" data-name="Path 1381" d="M65.731,295.8c1.2,0,2.4,0,3.595,0,.518,0,.8.239.788.64-.013.377-.321.624-.789.624-2.409,0-4.819,0-7.228,0a.642.642,0,0,1-.71-.478.885.885,0,0,1,.213-.645.792.792,0,0,1,.537-.14C63.335,295.793,64.533,295.8,65.731,295.8Z" transform="translate(-39.073 -44.09)" fill="#aaa"/>
    <path id="Path_1382" data-name="Path 1382" d="M68.262,380.175c-.28.379-.518.732-.792,1.056a.625.625,0,0,1-.415.207c-1.731.014-3.463.011-5.195.006-.464,0-.792-.265-.8-.618-.01-.406.317-.7.813-.694,1.464.009,2.928.03,4.392.042C66.916,380.179,67.568,380.175,68.262,380.175Z" transform="translate(-38.779 -121.822)" fill="#aaa"/>
    <path id="Path_1383" data-name="Path 1383" d="M63.566,424.217c-.613,0-1.226,0-1.839,0-.462,0-.729-.23-.736-.622s.26-.629.716-.629q1.859,0,3.718,0a.655.655,0,0,1,.715.609.69.69,0,0,1-.734.642C64.792,424.22,64.179,424.217,63.566,424.217Z" transform="translate(-38.715 -161.302)" fill="#aaa"/>
    <path id="Path_1384" data-name="Path 1384" d="M227.3,289.611l-1.938-1.454c.234-.418.543-.8,1.04-.738a1.69,1.69,0,0,1,1.294.952C227.929,288.837,227.666,289.242,227.3,289.611Z" transform="translate(-190.222 -36.361)" fill="#aaa"/>
  </g>
</svg>
